{"title":"Muskurake Dekh Zara 2014 Hindi Movies DVDRip with Sample ~ â˜»rDXâ˜»","uid":10701371,"size":737054835,"categoryP":"video","categoryS":"movies","magnet":"?xt=urn:btih:c5f4c3e35462f63e74dc732142fca9acaf81d741&amp;dn=Muskurake+Dekh+Zara+2014+Hindi+Movies+DVDRip+with+Sample+%7E+%E2%98%BBrDX%E2%98%BB&amp;tr=udp%3A%2F%2Ftracker.openbittorrent.com%3A80&amp;tr=udp%3A%2F%2Fopen.demonii.com%3A1337&amp;tr=udp%3A%2F%2Ftracker.coppersurfer.tk%3A6969&amp;tr=udp%3A%2F%2Fexodus.desync.com%3A6969","seeders":1,"leechers":1,"uploader":"basicssom","files":2,"time":1407231302,"description":"----------------------------------------------------------------\nMuskurake Dekh Zara 2014 Hindi Movies DVDRip XViD with Sample ~ â˜»rDXâ˜»\n\nPOSTER:\n &lt;a href=&quot;\nhttp://istoreimg.com/upload/big/2014/08/05/53e07a7fab20e.jpg&quot; rel=&quot;nofollow&quot; target=&quot;_NEW&quot;&gt;\nhttp://istoreimg.com/upload/big/2014/08/05/53e07a7fab20e.jpg&lt;/a&gt;\n\nSCREEN SHOTS :\n &lt;a href=&quot;\nhttp://planethost.co.nr/7/MuskurakeDekhZara/1.html&quot; rel=&quot;nofollow&quot; target=&quot;_NEW&quot;&gt;\nhttp://planethost.co.nr/7/MuskurakeDekhZara/1.html&lt;/a&gt; &lt;a href=&quot;\nhttp://planethost.co.nr/7/MuskurakeDekhZara/2.html&quot; rel=&quot;nofollow&quot; target=&quot;_NEW&quot;&gt;\nhttp://planethost.co.nr/7/MuskurakeDekhZara/2.html&lt;/a&gt; &lt;a href=&quot;\nhttp://planethost.co.nr/7/MuskurakeDekhZara/3.html&quot; rel=&quot;nofollow&quot; target=&quot;_NEW&quot;&gt;\nhttp://planethost.co.nr/7/MuskurakeDekhZara/3.html&lt;/a&gt; &lt;a href=&quot;\nhttp://planethost.co.nr/7/MuskurakeDekhZara/4.html&quot; rel=&quot;nofollow&quot; target=&quot;_NEW&quot;&gt;\nhttp://planethost.co.nr/7/MuskurakeDekhZara/4.html&lt;/a&gt; &lt;a href=&quot;\nhttp://planethost.co.nr/7/MuskurakeDekhZara/5.html&quot; rel=&quot;nofollow&quot; target=&quot;_NEW&quot;&gt;\nhttp://planethost.co.nr/7/MuskurakeDekhZara/5.html&lt;/a&gt; &lt;a href=&quot;\nhttp://planethost.co.nr/7/MuskurakeDekhZara/6.html&quot; rel=&quot;nofollow&quot; target=&quot;_NEW&quot;&gt;\nhttp://planethost.co.nr/7/MuskurakeDekhZara/6.html&lt;/a&gt; &lt;a href=&quot;\nhttp://planethost.co.nr/7/MuskurakeDekhZara/7.html&quot; rel=&quot;nofollow&quot; target=&quot;_NEW&quot;&gt;\nhttp://planethost.co.nr/7/MuskurakeDekhZara/7.html&lt;/a&gt; &lt;a href=&quot;\nhttp://planethost.co.nr/7/MuskurakeDekhZara/8.html&quot; rel=&quot;nofollow&quot; target=&quot;_NEW&quot;&gt;\nhttp://planethost.co.nr/7/MuskurakeDekhZara/8.html&lt;/a&gt; &lt;a href=&quot;\nhttp://planethost.co.nr/7/MuskurakeDekhZara/9.html&quot; rel=&quot;nofollow&quot; target=&quot;_NEW&quot;&gt;\nhttp://planethost.co.nr/7/MuskurakeDekhZara/9.html&lt;/a&gt; &lt;a href=&quot;\nhttp://planethost.co.nr/7/MuskurakeDekhZara/10.html&quot; rel=&quot;nofollow&quot; target=&quot;_NEW&quot;&gt;\nhttp://planethost.co.nr/7/MuskurakeDekhZara/10.html&lt;/a&gt;\n\nFormat                                   : Matroska\nFormat version                           : Version 4 / Version 2\nFile size                                : 688 MiB\nDuration                                 : 2h 25mn\nOverall bit rate                         : 662 Kbps\nMovie name                               : Muskurake Dekh Zara 2014 Hindi Movies DVDRip ~ rDX ~\n\nVideo\nID                                       : 1\nFormat                                   : MPEG-4 Visual\nFormat profile                           : Advanced Simple@L5\nFormat settings, BVOP                    : Yes\nFormat settings, QPel                    : No\nFormat settings, GMC                     : No warppoints\nFormat settings, Matrix                  : Default (H.263)\nCodec ID                                 : V_MS/VFW/FOURCC / XVID\nCodec ID/Hint                            : XviD\nDuration                                 : 2h 25mn\nBit rate                                 : 520 Kbps\nWidth                                    : 640 pixels\nHeight                                   : 272 pixels\nDisplay aspect ratio                     : 2.35:1\nFrame rate mode                          : Constant\nFrame rate                               : 25.000 fps\nColor space                              : YUV\nChroma subsampling                       : 4:2:0\nBit depth                                : 8 bits\nScan type                                : Progressive\nCompression mode                         : Lossy\nBits/(Pixel*Frame)                       : 0.120\nStream size                              : 541 MiB (79%)\nTitle                                    : ~ rDX ~\nWriting library                          : XviD 1.2.1 (UTC 2008-12-04)\nDefault                                  : Yes\nForced                                   : No\n\nAudio\nID                                       : 2\nFormat                                   : MPEG Audio\nFormat version                           : Version 1\nFormat profile                           : Layer 3\nMode                                     : Joint stereo\nMode extension                           : MS Stereo\nCodec ID                                 : A_MPEG/L3\nCodec ID/Hint                            : MP3\nDuration                                 : 2h 25mn\nBit rate mode                            : Constant\nBit rate                                 : 128 Kbps\nChannel(s)                               : 2 channels\nSampling rate                            : 48.0 KHz\nCompression mode                         : Lossy\nStream size                              : 133 MiB (19%)\nTitle                                    : ~ rDX ~\nWriting library                          : LAME3.99r\nEncoding settings                        : -m j -V 4 -q 2 -lowpass 17 -b 128\nDefault                                  : Yes\nForced                                   : No","torrent":{"xt":"urn:btih:c5f4c3e35462f63e74dc732142fca9acaf81d741","amp;dn":"Muskurake+Dekh+Zara+2014+Hindi+Movies+DVDRip+with+Sample+%7E+%E2%98%BBrDX%E2%98%BB","amp;tr":["udp%3A%2F%2Ftracker.openbittorrent.com%3A80","udp%3A%2F%2Fopen.demonii.com%3A1337","udp%3A%2F%2Ftracker.coppersurfer.tk%3A6969","udp%3A%2F%2Fexodus.desync.com%3A6969"],"infoHash":"c5f4c3e35462f63e74dc732142fca9acaf81d741","infoHashBuffer":{"type":"Buffer","data":[197,244,195,227,84,98,246,62,116,220,115,33,66,252,169,172,175,129,215,65]},"announce":[],"urlList":[]}}